<svg t="1763794303917" class="icon" viewBox="0 0 1024 1024" version="1.1" xmlns="http://www.w3.org/2000/svg" p-id="1473"
    width="32" height="32">
    <path
        d="M663.381333 165.290667c17.237333 40.661333 3.754667 128.853333-24.32 219.050666h214.058667a85.333333 85.333333 0 0 1 82.773333 105.941334l-95.573333 383.658666A85.333333 85.333333 0 0 1 757.589333 938.666667H128a42.666667 42.666667 0 0 1-42.666667-42.666667V427.008a42.666667 42.666667 0 0 1 42.666667-42.666667h192c59.946667-49.493333 96.298667-102.954667 110.506667-160.554666l2.56-11.52c29.226667-151.296 179.114667-167.850667 230.314666-46.933334zM149.333333 448.298667V874.666667l106.666667-0.042667v-426.325333H149.333333z m348.288-231.893334l-1.706666 7.978667c-14.293333 73.728-55.850667 140.074667-123.050667 198.954667l-12.117333 10.325333a64 64 0 0 1-40.704 14.677333L320 874.624l437.546667 0.042667a21.333333 21.333333 0 0 0 19.541333-12.757334l1.152-3.413333 95.573333-383.701333a21.333333 21.333333 0 0 0-16.853333-26.112l-3.84-0.341334h-300.970667l25.813334-83.029333c2.218667-7.253333 4.352-14.378667 6.357333-21.418667l5.589333-20.778666 4.821334-19.925334 4.053333-18.944c0.597333-3.072 1.194667-6.101333 1.706667-9.088l2.901333-17.152c4.608-30.208 5.290667-53.376 2.048-64.853333l-0.981333-2.858667c-26.282667-62.08-87.68-53.888-106.837334 26.112z"
        fill="#000000" p-id="1474"></path>
</svg>